PathFileType	4	(X/Y/Z)	55_2_90_p0_0-277.trc
DataRate	CameraRate	NumFrames	NumMarkers	Units	OrigDataRate	OrigDataStartFrame	OrigNumFrames
52.0	52.0	6	27	m	52.0	139	278
Frame#	Time	RHip			RKnee			RAnkle			RBigToe			RSmallToe			RHeel			LHip			LKnee			LAnkle			LBigToe			LSmallToe			LHeel			Neck			Head			Nose			RShoulder			RElbow			RWrist			RThumb			RIndex			RPinky			LShoulder			LElbow			LWrist			LThumb			LIndex			LPinky			
		X1	Y1	Z1	X2	Y2	Z2	X3	Y3	Z3	X4	Y4	Z4	X5	Y5	Z5	X6	Y6	Z6	X7	Y7	Z7	X8	Y8	Z8	X9	Y9	Z9	X10	Y10	Z10	X11	Y11	Z11	X12	Y12	Z12	X13	Y13	Z13	X14	Y14	Z14	X15	Y15	Z15	X16	Y16	Z16	X17	Y17	Z17	X18	Y18	Z18	X19	Y19	Z19	X20	Y20	Z20	X21	Y21	Z21	X22	Y22	Z22	X23	Y23	Z23	X24	Y24	Z24	X25	Y25	Z25	X26	Y26	Z26	X27	Y27	Z27	
139	2.673076923076923	0.32284843307322203	0.5929878436186692	0.8030624793639953	0.28138108812195267	0.4717657595659449	1.1881254432597126	0.30663581222472946	0.6029200214306248	1.6319273338915672	0.28754287960345104	0.4033561334447904	1.632162180915887	0.3496513496236874	0.437408766229707	1.6498306065529464	0.2950468837643525	0.6643057090692083	1.7045276067393518	0.11757620954573325	0.599213408146958	0.8107237492609972	0.11807342813443725	0.44765512666561075	1.1463820781793468	0.13592669768756263	0.5939977971552428	1.6164824405823817	0.11993944967851689	0.3910564494755119	1.6141811328127502	0.0754603241083526	0.47698818854822395	1.6581186698169839	0.16107451245951493	0.6726139170169915	1.7028937791640018	0.22069204743975512	0.6094062327986077	0.2514435397685835	0.22044533808566602	0.5077224963151017	0.0022172397017057644	0.20817699670342724	0.4401878799150747	0.12962486144628246	0.3596406825103992	0.5603042676442639	0.3076048872800215	0.40816477825110997	0.39760719920671955	0.4949454053355442	0.3700802241596597	0.25204984700688016	0.30469881566347506	0.35505946634291063	0.2734327336182701	0.20175972696353103	0.37267504363295145	0.24262161911127209	0.18462159429792727	0.3639640645936737	0.20363730582735784	0.22098416846947763	0.09815669715726837	0.6285630409614049	0.3157879348709135	0.10140739133818659	0.4022304667610429	0.44982229968592596	0.1853062194040199	0.27758826120809366	0.2631060161262513	0.23300390199702706	0.33781752653227065	0.20815016527271532	0.23177538863836825	0.3316263086460212	0.17797302005844523	0.2233343821439604	0.1897161259138731	0.18864265479811224
140	2.6923076923076925	0.31793004967332217	0.5807370846225968	0.7985827996348414	0.281438416785682	0.4718956660740684	1.188119960183529	0.30715962902531213	0.6011259563991743	1.6361505840651402	0.27854981039098536	0.381531054635043	1.626617513952732	0.34732206465631515	0.4092458624258798	1.6313734747233062	0.3018928395888814	0.6789664291833686	1.709091811085761	0.11748572766770222	0.599001414464517	0.810456470314341	0.11843915502906095	0.44626410200975025	1.149853916514572	0.1370891603089073	0.5935006434235612	1.61089919824533	0.12462690962284775	0.3929722849492933	1.6151294918561012	0.07642562862692069	0.47665082137808146	1.6536746209366386	0.1599064532350241	0.6731012024399698	1.692842406735381	0.2205076374152869	0.6104006551734295	0.24776369054405042	0.2137780277737438	0.5111082916743244	-0.0009779892302457143	0.20465067263741976	0.454053574335665	0.12176268905478867	0.3507987628979486	0.5614935489512812	0.30760081717682114	0.40415099355210937	0.38859285358511	0.4890156085393882	0.38031675782618773	0.2508449469059761	0.30212395356666716	0.34981375677536125	0.24881300976805498	0.19538169582912482	0.3810892344253307	0.23481980982993145	0.168254109396109	0.3853790195281146	0.18776474681099894	0.20714375683234484	0.09767122459546251	0.6285464717827871	0.30813723438940044	0.10131547880509548	0.3664610538968229	0.44032516880567213	0.18081164013341766	0.2773404000263935	0.2532179788678566	0.22187047475217278	0.33949174083562866	0.19401674269184485	0.22423047152533526	0.3225805852890403	0.1697334085598223	0.22312692170179987	0.18969756133761875	0.17782881542385187
141	2.7115384615384617	0.31710605856888313	0.5799397246654361	0.7937043214519982	0.2821394614609638	0.47215814627827773	1.1838416810235486	0.30701620548402747	0.6008274634847235	1.635907414620629	0.2784983148511176	0.38208983448852046	1.6261666030282458	0.3476279521750408	0.41005152622061464	1.631147635678539	0.2964674981691266	0.6647157914236667	1.6995052349621986	0.1173083482323218	0.5983182216946366	0.8011737489819515	0.11856532999365124	0.44646602031196553	1.1498616822668104	0.1370081805916404	0.5936451131227972	1.6111563597129388	0.11986495335256997	0.39096843380328006	1.6139397048891235	0.07648710515039968	0.47660200156690435	1.6536408728683465	0.15980456203017265	0.6731269035207365	1.6935330190386182	0.21597431902166925	0.609151197901485	0.24003332902176855	0.21306138940574776	0.5107194754748712	-0.003945693226908093	0.19278308086166387	0.46318453834955026	0.11963356426077634	0.35104882886401256	0.5734954015490052	0.3098026257868977	0.4088992320073322	0.3998401901494742	0.49117534521147227	0.3860555094817678	0.2627942493691163	0.3086430047108452	0.36099417238466086	0.2734305370182255	0.195166500831937	0.3945353726791003	0.24872572983022911	0.16393178232437053	0.4042433775666288	0.19778794268041747	0.20434031530364752	0.09278334323949933	0.624967163187024	0.30293219424901646	0.09695402048612758	0.3776219924239217	0.43891164993105697	0.1773710791016522	0.2889560689671577	0.2555436754965019	0.22236211416834722	0.3492097618096615	0.18785894200236114	0.21592229324057965	0.3194310182787117	0.16564293509481215	0.20301705484811378	0.21053890722451812	0.17999906370756066
142	2.730769230769231	0.3170042853853908	0.579470419751648	0.7933984931845136	0.2815067462858387	0.47214304882879765	1.1883513024127688	0.3066247493552071	0.6028673796633404	1.6317730213085928	0.28187061793977636	0.391831111479227	1.6290276763417069	0.3449476187739589	0.4253167933452751	1.6416903731499155	0.3000989748025195	0.6776236970418432	1.713519542592338	0.11728762891674106	0.5982236850011274	0.8011374755738453	0.11847476020567695	0.4466205628912581	1.150018101983565	0.1370658422399331	0.5936732270978303	1.6112716327430694	0.11971324190769	0.3908584581200687	1.6140033537317737	0.07642113168536212	0.4766932090367246	1.653826291871998	0.16084195979206722	0.6745628230909012	1.6983918690599762	0.21620799026744694	0.6092196218795862	0.23578002745944687	0.2053069514274572	0.5209593961886148	-0.009800880441382949	0.18461765029308178	0.46006161524602396	0.11899442674227567	0.3531225661261804	0.5574888478669672	0.29942595693338064	0.41381609881869175	0.4118898100968209	0.4869649574402533	0.40184432550960275	0.2976882306369616	0.30325237635239327	0.3826231487503074	0.29994851849252513	0.19274987596221374	0.4279659141435412	0.2665437305779033	0.1597129912541422	0.437171528962565	0.23992223394810766	0.18743502863281175	0.09299395282622332	0.6259848285578591	0.30677743241417005	0.0866499096809727	0.39181936455283756	0.4459781366716652	0.17090198449232874	0.2901075336935796	0.2563030529400737	0.21076620031996232	0.3382583622599409	0.1909582644570921	0.20074016867383346	0.3097778207686032	0.16868549964966925	0.18581918221141214	0.2401180316733311	0.19350036611800825
143	2.75	0.31666506625537416	0.5803400799472166	0.7894302822201845	0.2814867066133588	0.4722787636824011	1.1884250027536323	0.3066512589622925	0.6030029841948407	1.6319905078108177	0.281990678034477	0.39192321134711855	1.6294260948401644	0.34768913833347104	0.4100055412673586	1.6313451230105853	0.3006896256237117	0.6788202492714652	1.714550373941905	0.11222612066919906	0.5954186208679065	0.7951073721176448	0.11819281082328947	0.448053748993268	1.146505082760218	0.13699536709194884	0.5937394927466337	1.611253922732808	0.1159306905024267	0.4047961949410664	1.623707035166308	0.07631027383993345	0.477056202026376	1.6540903152769981	0.16477034071647878	0.687476663337302	1.706108473038588	0.2117645919705102	0.6073754558282451	0.23571396683429202	0.2014177362483981	0.5115938870717991	-0.013790881276177998	0.1804705229026085	0.45964093211449725	0.11223013941803721	0.3480808427579328	0.5441273316582107	0.2935339084396388	0.4178134105284066	0.42225388383353174	0.4776606970228731	0.41524002982900915	0.31898454649432867	0.30287005508621423	0.4048845330484147	0.32413791154182897	0.18585253763040802	0.4484246746766089	0.2943205802139994	0.16342499230942942	0.4544127319914051	0.266476219575754	0.19234876519744243	0.0878737201362409	0.621505560819048	0.30198834920000067	0.08629141737727941	0.4148734929478532	0.45269589348224215	0.16772864918915087	0.3010516784879692	0.25866307163116486	0.20679867975342403	0.34764041328182027	0.19909597865344322	0.1846669642827914	0.28698685088895415	0.16157451304478082	0.1739602363203053	0.23985771424258892	0.1908149896891645
144	2.769230769230769	0.3168699309602905	0.5790276453096076	0.7930370333034601	0.2805126264548074	0.4712697398819029	1.183397898679725	0.3043124604008162	0.5836569195429635	1.6192439726520496	0.2774340037930751	0.3810907312471773	1.6211873186871926	0.34791567420462277	0.410422538225608	1.630853719908526	0.30110704941459276	0.6773510736201227	1.7078048996325204	0.11227382717552623	0.5951632128681965	0.7951804789431369	0.11827053831508326	0.4484239542182803	1.1467392406370096	0.1361877782967176	0.5922646428531838	1.6196845385729863	0.12797007369427063	0.4048068173011029	1.6233036582379363	0.075457790975088	0.47720785008654887	1.6583823799373008	0.16032212481756977	0.6713157136541935	1.6981072552357162	0.2155676767585927	0.6086820384361382	0.22851351283625596	0.19064197220672063	0.5335693325974301	-0.009183824165839634	0.17282994608052651	0.4488361994758174	0.10763476223060847	0.3480421090333859	0.5440723347390619	0.2900735185993085	0.42716476044692825	0.44307158799704743	0.47522446174899735	0.4249995598632237	0.33111996362261586	0.3076728339568831	0.4194011261134253	0.3454472003401522	0.18185715979748368	0.4529722923680462	0.30306043871894994	0.16464986852742133	0.4612304957035006	0.26417694035834033	0.1985071947117284	0.08019224811693809	0.6229618036371122	0.3061327583638129	0.07427734305528326	0.4370994053740304	0.4671524451539175	0.15410376959394345	0.3337844435070411	0.27232187838799854	0.179554103514677	0.32558893608528516	0.19543901368080271	0.167834585511909	0.2966889881827507	0.17067985351753093	0.17341100802397952	0.24849173589300588	0.19699716155628688
